<svg width="16" height="16" viewBox="0 0 16 16" fill="none" xmlns="http://www.w3.org/2000/svg">

<g id="Icon/bell">
<path id="Vector" d="M12 5.33333C12 4.27247 11.5786 3.25505 10.8284 2.5049C10.0783 1.75476 9.06087 1.33333 8 1.33333C6.93913 1.33333 5.92172 1.75476 5.17157 2.5049C4.42143 3.25505 4 4.27247 4 5.33333C4 10 2 11.3333 2 11.3333H14C14 11.3333 12 10 12 5.33333Z" stroke="currentColor" stroke-width="1.33333" stroke-linecap="round" stroke-linejoin="round"/>
<path id="Vector_2" d="M9.15333 14C9.03612 14.2021 8.86789 14.3698 8.66548 14.4864C8.46307 14.6029 8.23358 14.6643 8 14.6643C7.76641 14.6643 7.53692 14.6029 7.33451 14.4864C7.1321 14.3698 6.96387 14.2021 6.84666 14" stroke="currentColor" stroke-width="1.33333" stroke-linecap="round" stroke-linejoin="round"/>
</g>
</svg>
